<svg xmlns="http://www.w3.org/2000/svg" xmlns:xlink="http://www.w3.org/1999/xlink" width="48" height="48" viewBox="0 0 48 48">
  <defs>
    <clipPath id="clip-path">
      <rect id="Rectangle_5451" data-name="Rectangle 5451" width="48" height="48" transform="translate(710 780)" fill="#f7f7f7"/>
    </clipPath>
  </defs>
  <g id="Group_12520" data-name="Group 12520" transform="translate(-710 -780)">
    <g id="Mask_Group_165" data-name="Mask Group 165" clip-path="url(#clip-path)">
      <path id="cash" d="M34.648,2.01a9.311,9.311,0,0,0-1.144,0,9.585,9.585,0,0,0-1.144,0A14.961,14.961,0,0,0,17.834,13.677a1.171,1.171,0,0,0,2.288.5A12.673,12.673,0,0,1,32.36,4.3h1.052a13.131,13.131,0,0,1,2.288.435h0a12.719,12.719,0,0,1,9.013,9.745h0a13.016,13.016,0,0,1,.229,2.288,13.016,13.016,0,0,1-.229,2.288h0a14.6,14.6,0,0,1-.663,2.288h0a12.7,12.7,0,0,1-10.729,8.121H32.36a11.918,11.918,0,0,1-1.6-.137A14.847,14.847,0,1,0,3.582,40.51a1.121,1.121,0,0,0,1.556.389,1.1,1.1,0,0,0,.389-1.556,12.765,12.765,0,0,1-1.761-6.451A12.582,12.582,0,0,1,28.7,30.6a11.621,11.621,0,0,1,.229,2.288A13.017,13.017,0,0,1,28.7,35.18h0a12.719,12.719,0,0,1-8.945,9.7h0a13.13,13.13,0,0,1-2.288.435h0l-1.121.16a12.65,12.65,0,0,1-8.1-2.951,1.121,1.121,0,0,0-1.6.137,1.167,1.167,0,0,0,.137,1.624,14.892,14.892,0,0,0,9.562,3.477,9.586,9.586,0,0,0,1.144,0,9.311,9.311,0,0,0,1.144,0A14.892,14.892,0,0,0,33.5,32.893a10.453,10.453,0,0,0-.114-1.19h0l1.258.046a14.869,14.869,0,0,0,0-29.739ZM26.161,14.546A1.167,1.167,0,0,0,27.3,15.69h6.7a2.86,2.86,0,0,1-2.654,1.739H27.3a1.144,1.144,0,0,0-1.052.709,1.121,1.121,0,0,0,.252,1.235l6.062,6.085a1.144,1.144,0,0,0,.8.32H35.4a1.144,1.144,0,0,0,1.144-1.144A1.167,1.167,0,0,0,35.4,23.49H33.847l-3.775-3.775h1.281a5.193,5.193,0,0,0,5.056-3.98h1.007a1.167,1.167,0,0,0,1.144-1.144,1.144,1.144,0,0,0-1.144-1.144H36.409a5.834,5.834,0,0,0-.778-1.761h1.784a1.144,1.144,0,1,0,0-2.288H27.3a1.144,1.144,0,1,0,0,2.288h4.049a2.882,2.882,0,0,1,2.654,1.761H27.3A1.144,1.144,0,0,0,26.161,14.546ZM10.148,30.559A1.167,1.167,0,0,0,11.292,31.7h6.7a2.86,2.86,0,0,1-2.654,1.739H11.292a1.144,1.144,0,0,0-1.052.709,1.121,1.121,0,0,0,.252,1.235l6.062,6.085a1.144,1.144,0,0,0,.8.32H19.39a1.144,1.144,0,0,0,1.144-1.144A1.167,1.167,0,0,0,19.39,39.5H17.834L14.06,35.729h1.281a5.193,5.193,0,0,0,5.056-3.98H21.4A1.167,1.167,0,0,0,22.547,30.6,1.144,1.144,0,0,0,21.4,29.461H20.4a5.833,5.833,0,0,0-.778-1.761H21.4a1.144,1.144,0,0,0,0-2.288H11.292a1.144,1.144,0,0,0,0,2.288h4.049a2.882,2.882,0,0,1,2.654,1.761h-6.7A1.144,1.144,0,0,0,10.148,30.559Z" transform="translate(708.483 779.113)" fill="#505050"/>
    </g>
  </g>
</svg>
