<svg xmlns="http://www.w3.org/2000/svg" xmlns:xlink="http://www.w3.org/1999/xlink" width="16" height="16" viewBox="0 0 16 16">
  <defs>
    <clipPath id="clip-path">
      <rect id="Rectangle_5450" data-name="Rectangle 5450" width="16" height="16" transform="translate(0.486 0.486)" fill="#f7f7f7"/>
    </clipPath>
  </defs>
  <g id="Group_12540" data-name="Group 12540" transform="translate(-410.486 -780.486)">
    <g id="Mask_Group_164" data-name="Mask Group 164" transform="translate(410 780)" clip-path="url(#clip-path)">
      <path id="cash" d="M10.3,2a2.468,2.468,0,0,0-.3,0,2.54,2.54,0,0,0-.3,0,3.965,3.965,0,0,0-3.85,3.092.31.31,0,0,0,.606.133A3.359,3.359,0,0,1,9.692,2.6h.279a3.48,3.48,0,0,1,.606.115h0A3.371,3.371,0,0,1,12.966,5.3h0a3.45,3.45,0,0,1,.061.606,3.45,3.45,0,0,1-.061.606h0a3.868,3.868,0,0,1-.176.606h0A3.365,3.365,0,0,1,9.946,9.272H9.692a3.159,3.159,0,0,1-.424-.036,3.935,3.935,0,1,0-7.2,2.965.3.3,0,0,0,.412.1.291.291,0,0,0,.1-.412,3.383,3.383,0,0,1-.467-1.71,3.335,3.335,0,0,1,6.609-.606,3.08,3.08,0,0,1,.061.606,3.45,3.45,0,0,1-.061.606h0a3.371,3.371,0,0,1-2.371,2.571h0a3.48,3.48,0,0,1-.606.115h0l-.3.042A3.353,3.353,0,0,1,3.3,12.734a.3.3,0,0,0-.424.036.309.309,0,0,0,.036.43,3.947,3.947,0,0,0,2.534.922,2.541,2.541,0,0,0,.3,0,2.467,2.467,0,0,0,.3,0,3.947,3.947,0,0,0,3.941-3.941,2.77,2.77,0,0,0-.03-.315h0l.333.012A3.941,3.941,0,0,0,10.3,2ZM8.049,5.319a.309.309,0,0,0,.3.3h1.776a.758.758,0,0,1-.7.461H8.352a.3.3,0,0,0-.279.188A.3.3,0,0,0,8.14,6.6L9.746,8.211a.3.3,0,0,0,.212.085h.54a.3.3,0,0,0,.3-.3.309.309,0,0,0-.3-.3h-.412l-1-1h.34a1.376,1.376,0,0,0,1.34-1.055h.267a.309.309,0,0,0,.3-.3.3.3,0,0,0-.3-.3h-.267a1.546,1.546,0,0,0-.206-.467h.473a.3.3,0,1,0,0-.606H8.352a.3.3,0,1,0,0,.606H9.425a.764.764,0,0,1,.7.467H8.352A.3.3,0,0,0,8.049,5.319ZM3.8,9.563a.309.309,0,0,0,.3.3H5.884a.758.758,0,0,1-.7.461H4.108a.3.3,0,0,0-.279.188.3.3,0,0,0,.067.327L5.5,12.455a.3.3,0,0,0,.212.085h.54a.3.3,0,0,0,.3-.3.309.309,0,0,0-.3-.3H5.842l-1-1h.34a1.376,1.376,0,0,0,1.34-1.055h.267a.309.309,0,0,0,.3-.3.3.3,0,0,0-.3-.3H6.521a1.546,1.546,0,0,0-.206-.467h.473a.3.3,0,0,0,0-.606H4.108a.3.3,0,0,0,0,.606H5.181a.764.764,0,0,1,.7.467H4.108A.3.3,0,0,0,3.8,9.563Z" transform="translate(0.608 0.427)" fill="#505050"/>
    </g>
  </g>
</svg>
