<svg xmlns="http://www.w3.org/2000/svg" xmlns:xlink="http://www.w3.org/1999/xlink" width="16" height="16" viewBox="0 0 16 16">
  <defs>
    <clipPath id="clip-path">
      <rect id="Rectangle_5450" data-name="Rectangle 5450" width="16" height="16" transform="translate(0.486 0.486)" fill="#f7f7f7"/>
    </clipPath>
  </defs>
  <g id="Group_12540" data-name="Group 12540" transform="translate(-410.486 -780.486)">
    <g id="Mask_Group_164" data-name="Mask Group 164" transform="translate(410 780)" clip-path="url(#clip-path)">
      <g id="process" transform="translate(-0.344 -0.337)">
        <path id="Path_108107" data-name="Path 108107" d="M17.779,22.96a.071.071,0,0,1,.016.082,3.065,3.065,0,0,0-.2.492.073.073,0,0,1-.071.046A.524.524,0,0,0,17,24.1v.624a.524.524,0,0,0,.521.524.073.073,0,0,1,.071.046,3.065,3.065,0,0,0,.2.485.071.071,0,0,1-.016.082.526.526,0,0,0,0,.74l.444.442a.524.524,0,0,0,.733,0h0a.071.071,0,0,1,.082-.016,2.981,2.981,0,0,0,.492.2.071.071,0,0,1,.046.071.524.524,0,0,0,.528.528h.624a.524.524,0,0,0,.524-.521.071.071,0,0,1,.046-.071,2.98,2.98,0,0,0,.485-.2.071.071,0,0,1,.082.016h0a.528.528,0,0,0,.735,0l.442-.442a.526.526,0,0,0,0-.74.071.071,0,0,1-.016-.082,2.98,2.98,0,0,0,.2-.5.068.068,0,0,1,.068-.039.524.524,0,0,0,.533-.524V24.1a.524.524,0,0,0-.521-.524.073.073,0,0,1-.071-.046,3.065,3.065,0,0,0-.2-.485.071.071,0,0,1,.016-.082.526.526,0,0,0,0-.74l-.444-.442a.521.521,0,0,0-.733,0h0a.071.071,0,0,1-.082.016,2.981,2.981,0,0,0-.492-.2.071.071,0,0,1-.046-.071A.524.524,0,0,0,20.727,21H20.1a.524.524,0,0,0-.524.528.064.064,0,0,1-.039.061,2.871,2.871,0,0,0-.5.2.071.071,0,0,1-.082-.016h0a.528.528,0,0,0-.735,0l-.442.442A.526.526,0,0,0,17.779,22.96Zm.248.71a2.544,2.544,0,0,1,.171-.417.526.526,0,0,0-.1-.617.064.064,0,0,1,0-.093l.442-.442a.064.064,0,0,1,.093,0h0a.521.521,0,0,0,.61.091,2.486,2.486,0,0,1,.421-.173.515.515,0,0,0,.36-.5.066.066,0,0,1,.068-.066h.624a.066.066,0,0,1,.068.066.524.524,0,0,0,.364.505,2.544,2.544,0,0,1,.417.171.519.519,0,0,0,.61-.091h0a.064.064,0,0,1,.093,0l.442.442a.066.066,0,0,1,0,.1.524.524,0,0,0-.1.615,2.544,2.544,0,0,1,.171.417.524.524,0,0,0,.505.364.066.066,0,0,1,.066.068v.624a.068.068,0,0,1-.073.068.512.512,0,0,0-.5.36,2.52,2.52,0,0,1-.173.421.526.526,0,0,0,.1.617.064.064,0,0,1,0,.093l-.442.442a.064.064,0,0,1-.093,0h0a.519.519,0,0,0-.61-.091,2.543,2.543,0,0,1-.417.171.524.524,0,0,0-.364.505.066.066,0,0,1-.068.066H20.1a.066.066,0,0,1-.068-.066.524.524,0,0,0-.364-.505,2.543,2.543,0,0,1-.417-.171.508.508,0,0,0-.241-.061.526.526,0,0,0-.369.153h0a.064.064,0,0,1-.093,0l-.442-.442a.066.066,0,0,1,0-.1.524.524,0,0,0,.1-.615,2.544,2.544,0,0,1-.171-.417.524.524,0,0,0-.505-.364.066.066,0,0,1-.066-.068V24.1a.066.066,0,0,1,.066-.068.524.524,0,0,0,.5-.364Z" transform="translate(-11.585 -14.679)" fill="#505050" stroke="#505050" stroke-width="0.3"/>
        <path id="Path_108108" data-name="Path 108108" d="M8.831,11.785A2.049,2.049,0,1,0,6.782,9.736a2.049,2.049,0,0,0,2.049,2.049Zm0-3.643A1.594,1.594,0,1,1,7.237,9.736,1.594,1.594,0,0,1,8.831,8.142Zm-6.6,7.286H4.96a.228.228,0,0,0,.228-.228V12.469a.228.228,0,0,0-.228-.228H2.228A.228.228,0,0,0,2,12.469V15.2A.228.228,0,0,0,2.228,15.429ZM2.455,12.7H4.732v2.277H2.455Zm13.206,1.138a1.822,1.822,0,1,0-1.822,1.822A1.822,1.822,0,0,0,15.662,13.835Zm-3.188,0A1.366,1.366,0,1,1,13.84,15.2,1.366,1.366,0,0,1,12.474,13.835ZM6.811,5.524a.228.228,0,0,0,.2.114h3.643a.228.228,0,0,0,.2-.342L9.029,2.108a.228.228,0,0,0-.4,0L6.811,5.3A.228.228,0,0,0,6.811,5.524Zm2.02-2.846,1.43,2.5H7.4ZM5.98,14.47l-.228.4a4.718,4.718,0,0,0,.471.228l.187-.417A4.414,4.414,0,0,1,5.98,14.47Zm5.449.635-.187-.417a5.941,5.941,0,0,1-4.385.175l-.15.43a6.4,6.4,0,0,0,2.124.362A6.321,6.321,0,0,0,11.429,15.105Zm3.122-4.29c-.041.148-.087.3-.137.439l.43.15c.055-.155.1-.312.146-.471Zm.2-1.535a6.093,6.093,0,0,1-.1,1.1l.455.082a6.375,6.375,0,0,0-4.622-7.327l-.118.439a5.92,5.92,0,0,1,4.385,5.708ZM7.3,3.561l-.118-.428c-.157.043-.316.091-.471.146l.15.43A3.991,3.991,0,0,1,7.3,3.561ZM3.35,11.521A5.92,5.92,0,0,1,6.42,3.873l-.187-.417a6.387,6.387,0,0,0-3.306,8.238Z" fill="#505050" stroke="#505050" stroke-width="0.3"/>
      </g>
    </g>
  </g>
</svg>
