<svg xmlns="http://www.w3.org/2000/svg" xmlns:xlink="http://www.w3.org/1999/xlink" width="16" height="16" viewBox="0 0 16 16">
  <defs>
    <clipPath id="clip-path">
      <rect id="Rectangle_5450" data-name="Rectangle 5450" width="16" height="16" transform="translate(0.486 0.486)" fill="#f7f7f7"/>
    </clipPath>
  </defs>
  <g id="Group_12540" data-name="Group 12540" transform="translate(-410.486 -780.486)">
    <g id="Mask_Group_164" data-name="Mask Group 164" transform="translate(410 780)" clip-path="url(#clip-path)">
      <path id="setting" d="M9.751,9a.429.429,0,0,0-.607,0L8.8,9.337l-.681-.681,1.5-1.5h.681c1.686,0,2.577-1.039,2.577-3.006a.429.429,0,0,0-.622-.384l-1.441.72L10.4,4.062l.72-1.441A.429.429,0,0,0,10.736,2C8.77,2,7.73,2.891,7.73,4.576v.681l-1.5,1.5-2.4-2.4.341-.341a.429.429,0,0,0-.083-.672L1.939,2.061a.429.429,0,0,0-.525.065l-.429.429A.429.429,0,0,0,.92,3.08L2.209,5.227a.429.429,0,0,0,.672.083l.341-.341,2.4,2.4L.556,12.432a.426.426,0,0,0-.1.168L.022,13.888a.429.429,0,0,0,.1.439l.429.429a.429.429,0,0,0,.439.1l1.288-.429a.43.43,0,0,0,.168-.1L7.515,9.263l.681.681-.341.341a.429.429,0,0,0,0,.607l3.865,3.865a.429.429,0,0,0,.607,0l1.288-1.288a.429.429,0,0,0,0-.607L9.751,9ZM2.662,4.313,1.9,3.037,3.173,3.8l-.51.51Zm-.747,9.335-.94.313-.054-.054.313-.94L8.463,5.739a.429.429,0,0,0,.126-.3V4.576A1.473,1.473,0,0,1,10.016,2.91L9.493,3.955a.429.429,0,0,0,.081.5l.859.859a.429.429,0,0,0,.5.081l1.045-.522a1.473,1.473,0,0,1-1.666,1.426H9.448a.429.429,0,0,0-.3.126Zm10.109.2L8.767,10.588l.681-.681,3.257,3.257Z" transform="translate(1.615 0.045)" fill="#505050"/>
    </g>
  </g>
</svg>
