<svg xmlns="http://www.w3.org/2000/svg" xmlns:xlink="http://www.w3.org/1999/xlink" width="16" height="16" viewBox="0 0 16 16">
  <defs>
    <clipPath id="clip-path">
      <rect id="Rectangle_5450" data-name="Rectangle 5450" width="16" height="16" transform="translate(0.486 0.486)" fill="#f7f7f7"/>
    </clipPath>
  </defs>
  <g id="Group_12540" data-name="Group 12540" transform="translate(-410.486 -780.486)">
    <g id="Mask_Group_164" data-name="Mask Group 164" transform="translate(410 780)" clip-path="url(#clip-path)">
      <g id="_37" data-name="37" transform="translate(-0.074 0.221)">
        <path id="Path_108104" data-name="Path 108104" d="M13.78,3.352a11.738,11.738,0,0,0-10.44,0A.618.618,0,0,0,3,3.9v7.413a.618.618,0,0,0,.34.55l4.942,2.471a.618.618,0,0,0,.556,0l4.942-2.471a.618.618,0,0,0,.34-.55V3.9A.618.618,0,0,0,13.78,3.352Zm-.9,7.58L8.56,13.094,4.236,10.932V4.291a10.5,10.5,0,0,1,8.649,0Z" transform="translate(0)" fill="#505050"/>
        <path id="Path_108105" data-name="Path 108105" d="M7.987,9.957a.618.618,0,0,0-.68,1.025l1.853,1.236a.568.568,0,0,0,.34.105.618.618,0,0,0,.439-.179l3.089-3.089a.62.62,0,1,0-.877-.877L9.42,10.908Z" transform="translate(-1.558 -2.243)" fill="#505050"/>
      </g>
    </g>
  </g>
</svg>
