<svg xmlns="http://www.w3.org/2000/svg" xmlns:xlink="http://www.w3.org/1999/xlink" width="16" height="16" viewBox="0 0 16 16">
  <defs>
    <clipPath id="clip-path">
      <rect id="Rectangle_5450" data-name="Rectangle 5450" width="16" height="16" transform="translate(0.486 0.486)" fill="#f7f7f7"/>
    </clipPath>
  </defs>
  <g id="Group_12540" data-name="Group 12540" transform="translate(-410.486 -780.486)">
    <g id="Mask_Group_164" data-name="Mask Group 164" transform="translate(410 780)" clip-path="url(#clip-path)">
      <g id="technology" transform="translate(1.677 1.728)">
        <path id="Path_108101" data-name="Path 108101" d="M40.036,44.087a.836.836,0,1,0,.836.836A.836.836,0,0,0,40.036,44.087ZM44.928,41.3a.836.836,0,1,0,.836.836A.836.836,0,0,0,44.928,41.3Zm4.929,2.787a.836.836,0,1,0,.836.836A.836.836,0,0,0,49.857,44.087Z" transform="translate(-38.138 -40.238)" fill="none"/>
        <path id="Path_108102" data-name="Path 108102" d="M187.3,3.2a1.9,1.9,0,1,0-2.429,1.821V13.9a.531.531,0,0,0,1.062,0V5.019A1.9,1.9,0,0,0,187.3,3.2Zm-1.9.836a.836.836,0,1,1,.836-.836A.836.836,0,0,1,185.4,4.034Z" transform="translate(-178.608 -1.3)" fill="#505050"/>
        <path id="Path_108103" data-name="Path 108103" d="M10.919,106.3a1.9,1.9,0,0,0-1.879,1.638H8.512a.972.972,0,0,0-.9.512,1.753,1.753,0,0,0-.165.815v7.273a.531.531,0,1,0,1.062,0v-7.273A1.211,1.211,0,0,1,8.533,109H9.2a1.9,1.9,0,1,0,1.717-2.7Zm0,2.734a.836.836,0,1,1,.836-.836A.836.836,0,0,1,10.919,109.034Zm-7.716-1.1H2.977A1.9,1.9,0,1,0,2.818,109H3.2a.266.266,0,0,1,.265.265v7.273a.531.531,0,1,0,1.062,0v-7.273A1.328,1.328,0,0,0,3.2,107.938Zm-2.1,1.1a.836.836,0,1,1,.836-.836A.836.836,0,0,1,1.1,109.034Z" transform="translate(0.8 -103.513)" fill="#505050"/>
      </g>
    </g>
  </g>
</svg>
