<svg xmlns="http://www.w3.org/2000/svg" xmlns:xlink="http://www.w3.org/1999/xlink" width="48" height="48" viewBox="0 0 48 48">
  <defs>
    <clipPath id="clip-path">
      <rect id="Rectangle_5450" data-name="Rectangle 5450" width="48" height="48" transform="translate(410 824)" fill="#f7f7f7"/>
    </clipPath>
  </defs>
  <g id="Group_12521" data-name="Group 12521" transform="translate(-410 -780)">
    <g id="Mask_Group_164" data-name="Mask Group 164" transform="translate(0 -44)" clip-path="url(#clip-path)">
      <g id="technology" transform="translate(410.8 822.869)">
        <path id="Path_108101" data-name="Path 108101" d="M42.147,51.123a2.947,2.947,0,1,0,2.947,2.947A2.946,2.946,0,0,0,42.147,51.123ZM59.388,41.3a2.947,2.947,0,1,0,2.947,2.947A2.946,2.946,0,0,0,59.388,41.3ZM76.76,51.123a2.947,2.947,0,1,0,2.947,2.947A2.946,2.946,0,0,0,76.76,51.123Z" transform="translate(-36.258 -36.258)" fill="none"/>
        <path id="Path_108102" data-name="Path 108102" d="M196.878,7.989a6.689,6.689,0,1,0-8.56,6.417v31.3a1.871,1.871,0,0,0,3.742,0v-31.3a6.7,6.7,0,0,0,4.818-6.417Zm-6.689,2.947a2.947,2.947,0,1,1,2.947-2.947A2.946,2.946,0,0,1,190.189,10.936Z" transform="translate(-167.059 0)" fill="#505050"/>
        <path id="Path_108103" data-name="Path 108103" d="M40.5,106.3a6.7,6.7,0,0,0-6.623,5.772H32.017a3.424,3.424,0,0,0-3.162,1.805,6.179,6.179,0,0,0-.58,2.872v25.632a1.871,1.871,0,1,0,3.742,0V116.749a4.266,4.266,0,0,1,.075-.935h2.357A6.688,6.688,0,1,0,40.5,106.3Zm0,9.636a2.947,2.947,0,1,1,2.947-2.947A2.946,2.946,0,0,1,40.5,115.936Zm-27.195-3.864h-.8a6.686,6.686,0,1,0-.561,3.742h1.356a.938.938,0,0,1,.935.935v25.632a1.871,1.871,0,1,0,3.742,0V116.749A4.679,4.679,0,0,0,13.307,112.072Zm-7.418,3.864a2.947,2.947,0,1,1,2.947-2.947A2.946,2.946,0,0,1,5.889,115.936Z" transform="translate(0 -95.177)" fill="#505050"/>
      </g>
    </g>
  </g>
</svg>
