<svg xmlns="http://www.w3.org/2000/svg" width="80" height="80" viewBox="0 0 80 80">
  <g id="Group_12021" data-name="Group 12021" transform="translate(-393 -865)">
    <rect id="Rectangle_5340" data-name="Rectangle 5340" width="80" height="80" transform="translate(393 865)" fill="none"/>
    <g id="price-tag" transform="translate(403 874.995)">
      <g id="Group_12009" data-name="Group 12009" transform="translate(22.936 14.329)">
        <path id="Path_107846" data-name="Path 107846" d="M211.413,118.578l-16.348,23.689-2.317,18.951,24.209,3.034,4.032-33.488Z" transform="translate(-192.748 -118.578)" fill="#2980ba"/>
      </g>
      <path id="Path_107847" data-name="Path 107847" d="M350.589,1.492A5.235,5.235,0,0,0,347.118.011,5.185,5.185,0,0,0,343.2,1.492L331.117,13.616l1.2,1.2,1.265,1.265,3.589-3.63a8.721,8.721,0,0,0,10.958-1.107l2.463-2.463a5.229,5.229,0,0,0,0-7.388Zm-2.463,4.925L345.664,8.88a5.23,5.23,0,0,1-5.947,1.02l5.947-5.945a1.741,1.741,0,0,1,2.463,2.463Z" transform="translate(-292.117 0)" fill="#516373"/>
      <path id="Path_107848" data-name="Path 107848" d="M346.286,12.49a8.721,8.721,0,0,0,10.958-1.107l2.463-2.463a5.229,5.229,0,0,0,0-7.388A5.235,5.235,0,0,0,356.237.051l-14.8,14.8,1.265,1.265ZM354.782,4a1.741,1.741,0,0,1,2.463,2.463L354.782,8.92a5.23,5.23,0,0,1-5.947,1.02Z" transform="translate(-301.235 -0.04)" fill="#3e4d59"/>
      <path id="Path_107849" data-name="Path 107849" d="M41.329,113H24.175L0,137.086l8.62,8.62,8.62,8.62,24.091-24.108V113Z" transform="translate(0 -99.314)" fill="#1db3d6"/>
      <g id="rupee" transform="matrix(0.719, 0.695, -0.695, 0.719, -15.911, -20.764)">
        <g id="Group_12023" data-name="Group 12023" transform="translate(56.365)">
          <path id="Path_107858" data-name="Path 107858" d="M71.674,6.273H68.165a6.992,6.992,0,0,0-2.77-4.879h6.28a.7.7,0,0,0,0-1.394H57.056a.7.7,0,0,0,0,1.394h4.187a5.6,5.6,0,0,1,5.534,4.879h-9.72a.7.7,0,0,0,0,1.394h9.72a5.61,5.61,0,0,1-5.534,4.949h-4.18a.705.705,0,0,0-.691.718.723.723,0,0,0,.214.5L67.039,23.81a.684.684,0,0,0,.974-.028.716.716,0,0,0-.028-1l-9.2-8.775h2.446a7,7,0,0,0,6.929-6.343h3.509a.7.7,0,0,0,0-1.394Z" transform="translate(-56.365)" fill="#fff" stroke="#fff" stroke-width="1"/>
        </g>
      </g>
    </g>
  </g>
</svg>
