<svg xmlns="http://www.w3.org/2000/svg" width="80" height="80" viewBox="0 0 80 80">
  <g id="Group_12022" data-name="Group 12022" transform="translate(-93 -865)">
    <rect id="Rectangle_5338" data-name="Rectangle 5338" width="80" height="80" transform="translate(93 865)" fill="none"/>
    <g id="Page-1" transform="translate(103 874.793)">
      <g id="_029---Peice-of-the-puzzle" data-name="029---Peice-of-the-puzzle" transform="translate(0 0.207)">
        <path id="Shape" d="M23.813,39.836l-14.2-14.2a.511.511,0,0,1,0-.723l8.073-8.063a2.938,2.938,0,0,0,.061-4.151l-.082-.082a1.309,1.309,0,0,0-1.165-.337,5.682,5.682,0,0,1-5.848-2.719,5.84,5.84,0,0,1,.123-6.032,5.928,5.928,0,0,1,9.2-1.247,5.664,5.664,0,0,1,1.554,4.969,1.315,1.315,0,0,0,.317,1.125l.112.1a2.929,2.929,0,0,0,4.151-.061L34.186.356a.511.511,0,0,1,.723,0l7.817,7.818a2.938,2.938,0,0,1-.061,4.151l-.112.112a1.338,1.338,0,0,1-1.135.358,5.975,5.975,0,0,0-5.02,1.7,5.78,5.78,0,0,0,7.013,9.119,6.041,6.041,0,0,0,2.883-5.93,1.409,1.409,0,0,1,.368-1.176l.092-.092a2.938,2.938,0,0,1,4.151-.061l7.817,7.817a.511.511,0,0,1,0,.723L36.623,47Z" transform="translate(-0.106 -0.207)" fill="#1db3d6"/>
        <path id="Shape-2" data-name="Shape" d="M58.75,44.784,39.592,56.449a7.153,7.153,0,0,1-3.721,1.043H10.005L9.76,57.44a2.073,2.073,0,0,0,.245-.971V35h2.863A9.364,9.364,0,0,1,18.7,37.045a9.364,9.364,0,0,0,5.827,2.045h5.347a5.1,5.1,0,0,1,4.386,2.484l.092.153a3.7,3.7,0,0,1-.562,4.519h2.4a4.021,4.021,0,0,0,1.3-.215l18.923-6.308a2.817,2.817,0,0,1,3.128.981v.01a2.791,2.791,0,0,1-.787,4.069Z" transform="translate(-0.099 0.464)" fill="#fdd7ad"/>
        <path id="Shape-3" data-name="Shape" d="M33.61,46a4.583,4.583,0,0,1-1.094,1.748,1.1,1.1,0,0,1-.112.092,1.07,1.07,0,0,1-.542.2H25.1a8.131,8.131,0,0,0-4.529,1.37l-.757.5a1.018,1.018,0,1,1-1.125-1.7l.746-.5A10.166,10.166,0,0,1,25.1,46Z" transform="translate(0.276 0.727)" fill="#f09372"/>
        <path id="Shape-4" data-name="Shape" d="M8.179,59.6H3.067A3.07,3.07,0,0,1,0,56.536V35.067A3.07,3.07,0,0,1,3.067,32H8.179a3.07,3.07,0,0,1,3.067,3.067V56.536A3.068,3.068,0,0,1,8.179,59.6Z" transform="translate(0 0.397)" fill="#2980ba"/>
      </g>
    </g>
  </g>
</svg>
