<svg id="location" xmlns="http://www.w3.org/2000/svg" width="27" height="27" viewBox="0 0 27 27">
  <path id="Path_107866" data-name="Path 107866" d="M24.7,357.213a.789.789,0,1,0-.762,1.381c.942.516,1.483,1.087,1.483,1.568,0,.589-.837,1.5-3.186,2.3a28.344,28.344,0,0,1-8.732,1.218,28.344,28.344,0,0,1-8.732-1.218c-2.349-.795-3.186-1.707-3.186-2.3,0-.481.54-1.053,1.483-1.569a.789.789,0,1,0-.762-1.381c-1.051.575-2.3,1.554-2.3,2.95,0,1.07.739,2.6,4.259,3.788a29.949,29.949,0,0,0,9.241,1.3,29.949,29.949,0,0,0,9.241-1.3c3.52-1.191,4.259-2.718,4.259-3.788C27,358.766,25.748,357.787,24.7,357.213Z" transform="translate(0 -338.252)" fill="#1db3d6"/>
  <path id="Path_107867" data-name="Path 107867" d="M89.576,345.527a25.894,25.894,0,0,0,11.967,0c1.968-.553,2.966-1.353,2.966-2.379s-1-1.826-2.966-2.379c-.437-.123-.912-.23-1.417-.322q-.412.707-.862,1.456c.559.083,1.084.186,1.561.307a4.055,4.055,0,0,1,2.087.939,4.055,4.055,0,0,1-2.086.939,22.005,22.005,0,0,1-4.993.563c-.09.007-.181.01-.272.01s-.182,0-.272-.01a22,22,0,0,1-4.993-.563,4.055,4.055,0,0,1-2.086-.939,4.055,4.055,0,0,1,2.087-.939c.477-.121,1-.223,1.561-.307q-.451-.749-.862-1.456c-.505.092-.98.2-1.417.322-1.968.553-2.966,1.353-2.966,2.379S87.608,344.974,89.576,345.527Z" transform="translate(-82.06 -322.461)" fill="#1db3d6"/>
  <path id="Path_107868" data-name="Path 107868" d="M123.936,20.522a2,2,0,0,0,1.716-.956c2.582-4.2,5.66-9.725,5.66-12.241a7.377,7.377,0,0,0-14.753,0c0,2.516,3.078,8.045,5.66,12.241A2,2,0,0,0,123.936,20.522Zm-2.965-13.7a2.965,2.965,0,1,1,2.965,2.944A2.958,2.958,0,0,1,120.972,6.823Z" transform="translate(-110.436)" fill="#1db3d6"/>
</svg>
