<svg xmlns="http://www.w3.org/2000/svg" width="27" height="27" viewBox="0 0 27 27">
  <g id="telephone" transform="translate(-0.006)">
    <g id="Group_12024" data-name="Group 12024" transform="translate(0.006)">
      <path id="Path_107859" data-name="Path 107859" d="M20.507,61.388a1.889,1.889,0,0,0-2.856,0c-.668.662-1.336,1.324-1.992,2a.394.394,0,0,1-.55.1c-.432-.236-.892-.426-1.307-.685a20.716,20.716,0,0,1-4.994-4.545,11.832,11.832,0,0,1-1.79-2.867.411.411,0,0,1,.1-.527c.668-.645,1.319-1.307,1.975-1.97a1.9,1.9,0,0,0-.006-2.924c-.522-.527-1.044-1.044-1.566-1.571-.539-.539-1.072-1.083-1.616-1.616a1.9,1.9,0,0,0-2.856.006c-.673.662-1.319,1.341-2,1.992A3.252,3.252,0,0,0,.025,50.972a9.3,9.3,0,0,0,.718,4,24.312,24.312,0,0,0,4.315,7.188A26.7,26.7,0,0,0,13.9,69.081a12.79,12.79,0,0,0,4.9,1.425,3.59,3.59,0,0,0,3.081-1.173c.572-.64,1.218-1.223,1.824-1.835a1.909,1.909,0,0,0,.011-2.907Q22.118,62.984,20.507,61.388Z" transform="translate(-0.006 -43.515)" fill="#1db3d6"/>
      <path id="Path_107860" data-name="Path 107860" d="M244.016,104.084l2.1-.358A9.416,9.416,0,0,0,238.15,96l-.3,2.109a7.277,7.277,0,0,1,6.162,5.975Z" transform="translate(-224.559 -90.633)" fill="#1db3d6"/>
      <path id="Path_107861" data-name="Path 107861" d="M251.918,4.423A15.468,15.468,0,0,0,243.05,0l-.3,2.109a13.5,13.5,0,0,1,11.421,11.068l2.1-.358A15.581,15.581,0,0,0,251.918,4.423Z" transform="translate(-229.273)" fill="#1db3d6"/>
    </g>
  </g>
</svg>
